<mxfile host="Electron" agent="Mozilla/5.0 (Windows NT 10.0; Win64; x64) AppleWebKit/537.36 (KHTML, like Gecko) draw.io/24.7.17 Chrome/128.0.6613.36 Electron/32.0.1 Safari/537.36" version="24.7.17">
  <diagram name="PÃ¡gina-1" id="0CKOJEi2jpDgS8Vs0JW3">
    <mxGraphModel dx="1322" dy="688" grid="1" gridSize="10" guides="1" tooltips="1" connect="1" arrows="1" fold="1" page="1" pageScale="1" pageWidth="1920" pageHeight="1200" math="0" shadow="0">
      <root>
        <mxCell id="0" />
        <mxCell id="1" parent="0" />
        <mxCell id="-Cswm-ApFlKM6cjvyJiZ-1" value="ALUMNOS" style="whiteSpace=wrap;html=1;align=center;" parent="1" vertex="1">
          <mxGeometry x="340" y="160" width="100" height="40" as="geometry" />
        </mxCell>
        <mxCell id="-Cswm-ApFlKM6cjvyJiZ-2" value="TRABAJADORES" style="whiteSpace=wrap;html=1;align=center;" parent="1" vertex="1">
          <mxGeometry x="250" y="320" width="120" height="40" as="geometry" />
        </mxCell>
        <mxCell id="-Cswm-ApFlKM6cjvyJiZ-3" value="DESEMPLEADOS" style="whiteSpace=wrap;html=1;align=center;" parent="1" vertex="1">
          <mxGeometry x="410" y="320" width="120" height="40" as="geometry" />
        </mxCell>
        <mxCell id="-Cswm-ApFlKM6cjvyJiZ-4" value="" style="ellipse;whiteSpace=wrap;html=1;aspect=fixed;" parent="1" vertex="1">
          <mxGeometry x="385" y="220" width="10" height="10" as="geometry" />
        </mxCell>
        <mxCell id="-Cswm-ApFlKM6cjvyJiZ-5" value="" style="triangle;whiteSpace=wrap;html=1;rotation=90;" parent="1" vertex="1">
          <mxGeometry x="380" y="240" width="20" height="40" as="geometry" />
        </mxCell>
        <mxCell id="-Cswm-ApFlKM6cjvyJiZ-6" value="" style="endArrow=none;html=1;rounded=0;exitX=0.5;exitY=0;exitDx=0;exitDy=0;entryX=0.5;entryY=1;entryDx=0;entryDy=0;" parent="1" source="-Cswm-ApFlKM6cjvyJiZ-4" target="-Cswm-ApFlKM6cjvyJiZ-1" edge="1">
          <mxGeometry width="50" height="50" relative="1" as="geometry">
            <mxPoint x="360" y="180" as="sourcePoint" />
            <mxPoint x="390" y="200" as="targetPoint" />
          </mxGeometry>
        </mxCell>
        <mxCell id="-Cswm-ApFlKM6cjvyJiZ-7" value="" style="endArrow=none;html=1;rounded=0;exitX=0;exitY=0.5;exitDx=0;exitDy=0;entryX=0.5;entryY=1;entryDx=0;entryDy=0;" parent="1" source="-Cswm-ApFlKM6cjvyJiZ-5" target="-Cswm-ApFlKM6cjvyJiZ-4" edge="1">
          <mxGeometry width="50" height="50" relative="1" as="geometry">
            <mxPoint x="360" y="180" as="sourcePoint" />
            <mxPoint x="410" y="130" as="targetPoint" />
          </mxGeometry>
        </mxCell>
        <mxCell id="-Cswm-ApFlKM6cjvyJiZ-9" value="" style="endArrow=none;html=1;rounded=0;exitX=0.5;exitY=0;exitDx=0;exitDy=0;entryX=0.5;entryY=0;entryDx=0;entryDy=0;" parent="1" source="-Cswm-ApFlKM6cjvyJiZ-3" target="-Cswm-ApFlKM6cjvyJiZ-5" edge="1">
          <mxGeometry width="50" height="50" relative="1" as="geometry">
            <mxPoint x="495" y="370" as="sourcePoint" />
            <mxPoint x="402" y="330" as="targetPoint" />
          </mxGeometry>
        </mxCell>
        <mxCell id="-Cswm-ApFlKM6cjvyJiZ-10" value="" style="endArrow=none;html=1;rounded=0;exitX=0.5;exitY=0;exitDx=0;exitDy=0;entryX=0.5;entryY=1;entryDx=0;entryDy=0;" parent="1" source="-Cswm-ApFlKM6cjvyJiZ-2" target="-Cswm-ApFlKM6cjvyJiZ-5" edge="1">
          <mxGeometry width="50" height="50" relative="1" as="geometry">
            <mxPoint x="285" y="370" as="sourcePoint" />
            <mxPoint x="412" y="320" as="targetPoint" />
          </mxGeometry>
        </mxCell>
        <mxCell id="-Cswm-ApFlKM6cjvyJiZ-11" value="" style="curved=1;endArrow=none;html=1;rounded=0;endFill=0;" parent="1" edge="1">
          <mxGeometry width="50" height="50" relative="1" as="geometry">
            <mxPoint x="350" y="270" as="sourcePoint" />
            <mxPoint x="430" y="270" as="targetPoint" />
            <Array as="points">
              <mxPoint x="390" y="310" />
            </Array>
          </mxGeometry>
        </mxCell>
        <mxCell id="-Cswm-ApFlKM6cjvyJiZ-12" value="DNI" style="ellipse;whiteSpace=wrap;html=1;align=center;" parent="1" vertex="1">
          <mxGeometry x="160" y="40" width="100" height="40" as="geometry" />
        </mxCell>
        <mxCell id="-Cswm-ApFlKM6cjvyJiZ-13" value="direccion" style="ellipse;whiteSpace=wrap;html=1;align=center;" parent="1" vertex="1">
          <mxGeometry x="400" y="40" width="100" height="40" as="geometry" />
        </mxCell>
        <mxCell id="-Cswm-ApFlKM6cjvyJiZ-14" value="nombre" style="ellipse;whiteSpace=wrap;html=1;align=center;" parent="1" vertex="1">
          <mxGeometry x="520" y="40" width="100" height="40" as="geometry" />
        </mxCell>
        <mxCell id="-Cswm-ApFlKM6cjvyJiZ-15" value="telf" style="ellipse;whiteSpace=wrap;html=1;align=center;" parent="1" vertex="1">
          <mxGeometry x="640" y="40" width="100" height="40" as="geometry" />
        </mxCell>
        <mxCell id="-Cswm-ApFlKM6cjvyJiZ-16" value="edad" style="ellipse;whiteSpace=wrap;html=1;align=center;" parent="1" vertex="1">
          <mxGeometry x="280" y="40" width="100" height="40" as="geometry" />
        </mxCell>
        <mxCell id="-Cswm-ApFlKM6cjvyJiZ-17" value="" style="endArrow=none;html=1;rounded=0;entryX=0.5;entryY=1;entryDx=0;entryDy=0;exitX=0.5;exitY=0;exitDx=0;exitDy=0;" parent="1" source="-Cswm-ApFlKM6cjvyJiZ-1" target="-Cswm-ApFlKM6cjvyJiZ-13" edge="1">
          <mxGeometry width="50" height="50" relative="1" as="geometry">
            <mxPoint x="410" y="170" as="sourcePoint" />
            <mxPoint x="460" y="120" as="targetPoint" />
          </mxGeometry>
        </mxCell>
        <mxCell id="-Cswm-ApFlKM6cjvyJiZ-18" value="" style="endArrow=none;html=1;rounded=0;entryX=0.5;entryY=1;entryDx=0;entryDy=0;exitX=0.5;exitY=0;exitDx=0;exitDy=0;" parent="1" source="-Cswm-ApFlKM6cjvyJiZ-1" target="-Cswm-ApFlKM6cjvyJiZ-16" edge="1">
          <mxGeometry width="50" height="50" relative="1" as="geometry">
            <mxPoint x="410" y="170" as="sourcePoint" />
            <mxPoint x="460" y="120" as="targetPoint" />
          </mxGeometry>
        </mxCell>
        <mxCell id="-Cswm-ApFlKM6cjvyJiZ-19" value="" style="endArrow=none;html=1;rounded=0;exitX=0.5;exitY=0;exitDx=0;exitDy=0;entryX=0;entryY=1;entryDx=0;entryDy=0;" parent="1" source="-Cswm-ApFlKM6cjvyJiZ-1" target="-Cswm-ApFlKM6cjvyJiZ-14" edge="1">
          <mxGeometry width="50" height="50" relative="1" as="geometry">
            <mxPoint x="410" y="170" as="sourcePoint" />
            <mxPoint x="460" y="120" as="targetPoint" />
          </mxGeometry>
        </mxCell>
        <mxCell id="-Cswm-ApFlKM6cjvyJiZ-20" value="" style="endArrow=none;html=1;rounded=0;entryX=0;entryY=1;entryDx=0;entryDy=0;exitX=0.5;exitY=0;exitDx=0;exitDy=0;" parent="1" source="-Cswm-ApFlKM6cjvyJiZ-1" target="-Cswm-ApFlKM6cjvyJiZ-15" edge="1">
          <mxGeometry width="50" height="50" relative="1" as="geometry">
            <mxPoint x="410" y="170" as="sourcePoint" />
            <mxPoint x="460" y="120" as="targetPoint" />
          </mxGeometry>
        </mxCell>
        <mxCell id="-Cswm-ApFlKM6cjvyJiZ-21" value="" style="endArrow=none;html=1;rounded=0;entryX=1;entryY=1;entryDx=0;entryDy=0;exitX=0.5;exitY=0;exitDx=0;exitDy=0;" parent="1" source="-Cswm-ApFlKM6cjvyJiZ-1" target="-Cswm-ApFlKM6cjvyJiZ-12" edge="1">
          <mxGeometry width="50" height="50" relative="1" as="geometry">
            <mxPoint x="400" y="170" as="sourcePoint" />
            <mxPoint x="605" y="84" as="targetPoint" />
          </mxGeometry>
        </mxCell>
        <mxCell id="-Cswm-ApFlKM6cjvyJiZ-22" value="&lt;u&gt;codAlumno&lt;/u&gt;" style="ellipse;whiteSpace=wrap;html=1;align=center;" parent="1" vertex="1">
          <mxGeometry x="40" y="40" width="100" height="40" as="geometry" />
        </mxCell>
        <mxCell id="-Cswm-ApFlKM6cjvyJiZ-23" value="" style="endArrow=none;html=1;rounded=0;entryX=1;entryY=1;entryDx=0;entryDy=0;exitX=0.5;exitY=0;exitDx=0;exitDy=0;" parent="1" source="-Cswm-ApFlKM6cjvyJiZ-1" target="-Cswm-ApFlKM6cjvyJiZ-22" edge="1">
          <mxGeometry width="50" height="50" relative="1" as="geometry">
            <mxPoint x="400" y="170" as="sourcePoint" />
            <mxPoint x="255" y="84" as="targetPoint" />
          </mxGeometry>
        </mxCell>
        <mxCell id="-Cswm-ApFlKM6cjvyJiZ-24" value="CIF" style="ellipse;whiteSpace=wrap;html=1;align=center;" parent="1" vertex="1">
          <mxGeometry x="100" y="245" width="100" height="40" as="geometry" />
        </mxCell>
        <mxCell id="-Cswm-ApFlKM6cjvyJiZ-25" value="nomEmpresa" style="ellipse;whiteSpace=wrap;html=1;align=center;" parent="1" vertex="1">
          <mxGeometry x="100" y="395" width="100" height="40" as="geometry" />
        </mxCell>
        <mxCell id="-Cswm-ApFlKM6cjvyJiZ-26" value="telEmpresa" style="ellipse;whiteSpace=wrap;html=1;align=center;" parent="1" vertex="1">
          <mxGeometry x="100" y="345" width="100" height="40" as="geometry" />
        </mxCell>
        <mxCell id="-Cswm-ApFlKM6cjvyJiZ-27" value="dirEmpresa" style="ellipse;whiteSpace=wrap;html=1;align=center;" parent="1" vertex="1">
          <mxGeometry x="100" y="295" width="100" height="40" as="geometry" />
        </mxCell>
        <mxCell id="-Cswm-ApFlKM6cjvyJiZ-29" value="" style="endArrow=none;html=1;rounded=0;exitX=1;exitY=1;exitDx=0;exitDy=0;entryX=0;entryY=0.5;entryDx=0;entryDy=0;" parent="1" source="-Cswm-ApFlKM6cjvyJiZ-24" target="-Cswm-ApFlKM6cjvyJiZ-2" edge="1">
          <mxGeometry width="50" height="50" relative="1" as="geometry">
            <mxPoint x="230" y="320" as="sourcePoint" />
            <mxPoint x="280" y="270" as="targetPoint" />
          </mxGeometry>
        </mxCell>
        <mxCell id="-Cswm-ApFlKM6cjvyJiZ-30" value="" style="endArrow=none;html=1;rounded=0;exitX=0;exitY=0.5;exitDx=0;exitDy=0;entryX=1;entryY=0.5;entryDx=0;entryDy=0;" parent="1" source="-Cswm-ApFlKM6cjvyJiZ-2" target="-Cswm-ApFlKM6cjvyJiZ-27" edge="1">
          <mxGeometry width="50" height="50" relative="1" as="geometry">
            <mxPoint x="230" y="320" as="sourcePoint" />
            <mxPoint x="160" y="316" as="targetPoint" />
          </mxGeometry>
        </mxCell>
        <mxCell id="-Cswm-ApFlKM6cjvyJiZ-31" value="" style="endArrow=none;html=1;rounded=0;entryX=0;entryY=0.5;entryDx=0;entryDy=0;exitX=1;exitY=0.5;exitDx=0;exitDy=0;" parent="1" source="-Cswm-ApFlKM6cjvyJiZ-26" target="-Cswm-ApFlKM6cjvyJiZ-2" edge="1">
          <mxGeometry width="50" height="50" relative="1" as="geometry">
            <mxPoint x="240" y="330" as="sourcePoint" />
            <mxPoint x="290" y="280" as="targetPoint" />
          </mxGeometry>
        </mxCell>
        <mxCell id="-Cswm-ApFlKM6cjvyJiZ-32" value="" style="endArrow=none;html=1;rounded=0;exitX=0;exitY=0.5;exitDx=0;exitDy=0;entryX=1;entryY=0;entryDx=0;entryDy=0;" parent="1" source="-Cswm-ApFlKM6cjvyJiZ-2" target="-Cswm-ApFlKM6cjvyJiZ-25" edge="1">
          <mxGeometry width="50" height="50" relative="1" as="geometry">
            <mxPoint x="250" y="340" as="sourcePoint" />
            <mxPoint x="300" y="290" as="targetPoint" />
          </mxGeometry>
        </mxCell>
        <mxCell id="-Cswm-ApFlKM6cjvyJiZ-34" value="CURSO" style="whiteSpace=wrap;html=1;align=center;" parent="1" vertex="1">
          <mxGeometry x="940" y="200" width="80" height="40" as="geometry" />
        </mxCell>
        <mxCell id="-Cswm-ApFlKM6cjvyJiZ-35" value="&lt;u&gt;codCurso&lt;/u&gt;" style="ellipse;whiteSpace=wrap;html=1;align=center;" parent="1" vertex="1">
          <mxGeometry x="1060" y="125" width="100" height="40" as="geometry" />
        </mxCell>
        <mxCell id="-Cswm-ApFlKM6cjvyJiZ-37" value="horas" style="ellipse;whiteSpace=wrap;html=1;align=center;" parent="1" vertex="1">
          <mxGeometry x="1060" y="175" width="100" height="40" as="geometry" />
        </mxCell>
        <mxCell id="GnBPj98Vv4eyhJv7mCs9-1" value="programa" style="ellipse;whiteSpace=wrap;html=1;align=center;" vertex="1" parent="1">
          <mxGeometry x="1060" y="225" width="100" height="40" as="geometry" />
        </mxCell>
        <mxCell id="GnBPj98Vv4eyhJv7mCs9-2" value="titulo" style="ellipse;whiteSpace=wrap;html=1;align=center;" vertex="1" parent="1">
          <mxGeometry x="1060" y="275" width="100" height="40" as="geometry" />
        </mxCell>
        <mxCell id="GnBPj98Vv4eyhJv7mCs9-3" value="Impartir" style="shape=rhombus;perimeter=rhombusPerimeter;whiteSpace=wrap;html=1;align=center;" vertex="1" parent="1">
          <mxGeometry x="780" y="190" width="120" height="60" as="geometry" />
        </mxCell>
        <mxCell id="GnBPj98Vv4eyhJv7mCs9-4" value="fechaInicio" style="ellipse;whiteSpace=wrap;html=1;align=center;" vertex="1" parent="1">
          <mxGeometry x="680" y="280" width="100" height="40" as="geometry" />
        </mxCell>
        <mxCell id="GnBPj98Vv4eyhJv7mCs9-5" value="fechaFinal" style="ellipse;whiteSpace=wrap;html=1;align=center;" vertex="1" parent="1">
          <mxGeometry x="790" y="280" width="100" height="40" as="geometry" />
        </mxCell>
        <mxCell id="GnBPj98Vv4eyhJv7mCs9-6" value="&lt;u&gt;nCurso&lt;/u&gt;" style="ellipse;whiteSpace=wrap;html=1;align=center;" vertex="1" parent="1">
          <mxGeometry x="900" y="280" width="100" height="40" as="geometry" />
        </mxCell>
        <mxCell id="GnBPj98Vv4eyhJv7mCs9-8" value="PROFESOR" style="whiteSpace=wrap;html=1;align=center;" vertex="1" parent="1">
          <mxGeometry x="590" y="360" width="100" height="40" as="geometry" />
        </mxCell>
        <mxCell id="GnBPj98Vv4eyhJv7mCs9-9" value="" style="endArrow=none;html=1;rounded=0;entryX=0;entryY=0.5;entryDx=0;entryDy=0;exitX=0.5;exitY=0;exitDx=0;exitDy=0;edgeStyle=orthogonalEdgeStyle;" edge="1" parent="1" source="GnBPj98Vv4eyhJv7mCs9-8" target="GnBPj98Vv4eyhJv7mCs9-3">
          <mxGeometry width="50" height="50" relative="1" as="geometry">
            <mxPoint x="770" y="30" as="sourcePoint" />
            <mxPoint x="820" y="-20" as="targetPoint" />
          </mxGeometry>
        </mxCell>
        <mxCell id="GnBPj98Vv4eyhJv7mCs9-10" value="" style="endArrow=none;html=1;rounded=0;entryX=0;entryY=0.5;entryDx=0;entryDy=0;exitX=1;exitY=0.5;exitDx=0;exitDy=0;" edge="1" parent="1" source="GnBPj98Vv4eyhJv7mCs9-3" target="-Cswm-ApFlKM6cjvyJiZ-34">
          <mxGeometry width="50" height="50" relative="1" as="geometry">
            <mxPoint x="900" y="180" as="sourcePoint" />
            <mxPoint x="940" y="180" as="targetPoint" />
          </mxGeometry>
        </mxCell>
        <mxCell id="GnBPj98Vv4eyhJv7mCs9-11" value="" style="endArrow=none;html=1;rounded=0;entryX=0;entryY=1;entryDx=0;entryDy=0;exitX=1;exitY=0.5;exitDx=0;exitDy=0;" edge="1" parent="1" source="-Cswm-ApFlKM6cjvyJiZ-34" target="-Cswm-ApFlKM6cjvyJiZ-35">
          <mxGeometry width="50" height="50" relative="1" as="geometry">
            <mxPoint x="750" y="245" as="sourcePoint" />
            <mxPoint x="800" y="195" as="targetPoint" />
          </mxGeometry>
        </mxCell>
        <mxCell id="GnBPj98Vv4eyhJv7mCs9-12" value="" style="endArrow=none;html=1;rounded=0;entryX=0;entryY=0;entryDx=0;entryDy=0;exitX=1;exitY=0.5;exitDx=0;exitDy=0;" edge="1" parent="1" source="-Cswm-ApFlKM6cjvyJiZ-34" target="GnBPj98Vv4eyhJv7mCs9-2">
          <mxGeometry width="50" height="50" relative="1" as="geometry">
            <mxPoint x="1030" y="315" as="sourcePoint" />
            <mxPoint x="1085" y="254" as="targetPoint" />
          </mxGeometry>
        </mxCell>
        <mxCell id="GnBPj98Vv4eyhJv7mCs9-13" value="" style="endArrow=none;html=1;rounded=0;entryX=0;entryY=0;entryDx=0;entryDy=0;exitX=1;exitY=0.5;exitDx=0;exitDy=0;" edge="1" parent="1" source="-Cswm-ApFlKM6cjvyJiZ-34" target="GnBPj98Vv4eyhJv7mCs9-1">
          <mxGeometry width="50" height="50" relative="1" as="geometry">
            <mxPoint x="1030" y="315" as="sourcePoint" />
            <mxPoint x="1085" y="376" as="targetPoint" />
          </mxGeometry>
        </mxCell>
        <mxCell id="GnBPj98Vv4eyhJv7mCs9-14" value="" style="endArrow=none;html=1;rounded=0;entryX=0;entryY=1;entryDx=0;entryDy=0;exitX=1;exitY=0.5;exitDx=0;exitDy=0;" edge="1" parent="1" source="-Cswm-ApFlKM6cjvyJiZ-34" target="-Cswm-ApFlKM6cjvyJiZ-37">
          <mxGeometry width="50" height="50" relative="1" as="geometry">
            <mxPoint x="1030" y="315" as="sourcePoint" />
            <mxPoint x="1085" y="326" as="targetPoint" />
          </mxGeometry>
        </mxCell>
        <mxCell id="GnBPj98Vv4eyhJv7mCs9-15" value="" style="endArrow=none;html=1;rounded=0;entryX=0;entryY=1;entryDx=0;entryDy=0;exitX=1;exitY=0;exitDx=0;exitDy=0;" edge="1" parent="1" source="GnBPj98Vv4eyhJv7mCs9-4" target="GnBPj98Vv4eyhJv7mCs9-3">
          <mxGeometry width="50" height="50" relative="1" as="geometry">
            <mxPoint x="750" y="125" as="sourcePoint" />
            <mxPoint x="800" y="75" as="targetPoint" />
          </mxGeometry>
        </mxCell>
        <mxCell id="GnBPj98Vv4eyhJv7mCs9-16" value="" style="endArrow=none;html=1;rounded=0;entryX=1;entryY=1;entryDx=0;entryDy=0;exitX=0;exitY=0;exitDx=0;exitDy=0;" edge="1" parent="1" source="GnBPj98Vv4eyhJv7mCs9-6" target="GnBPj98Vv4eyhJv7mCs9-3">
          <mxGeometry width="50" height="50" relative="1" as="geometry">
            <mxPoint x="750" y="125" as="sourcePoint" />
            <mxPoint x="800" y="75" as="targetPoint" />
          </mxGeometry>
        </mxCell>
        <mxCell id="GnBPj98Vv4eyhJv7mCs9-17" value="" style="endArrow=none;html=1;rounded=0;entryX=0.5;entryY=0;entryDx=0;entryDy=0;exitX=0.5;exitY=1;exitDx=0;exitDy=0;" edge="1" parent="1" source="GnBPj98Vv4eyhJv7mCs9-3" target="GnBPj98Vv4eyhJv7mCs9-5">
          <mxGeometry width="50" height="50" relative="1" as="geometry">
            <mxPoint x="860" y="340" as="sourcePoint" />
            <mxPoint x="800" y="75" as="targetPoint" />
          </mxGeometry>
        </mxCell>
        <mxCell id="GnBPj98Vv4eyhJv7mCs9-18" value="DNI" style="ellipse;whiteSpace=wrap;html=1;align=center;" vertex="1" parent="1">
          <mxGeometry x="425" y="440" width="100" height="40" as="geometry" />
        </mxCell>
        <mxCell id="GnBPj98Vv4eyhJv7mCs9-19" value="direccion" style="ellipse;whiteSpace=wrap;html=1;align=center;" vertex="1" parent="1">
          <mxGeometry x="755" y="440" width="100" height="40" as="geometry" />
        </mxCell>
        <mxCell id="GnBPj98Vv4eyhJv7mCs9-20" value="nombre" style="ellipse;whiteSpace=wrap;html=1;align=center;" vertex="1" parent="1">
          <mxGeometry x="535" y="440" width="100" height="40" as="geometry" />
        </mxCell>
        <mxCell id="GnBPj98Vv4eyhJv7mCs9-21" value="telf" style="ellipse;whiteSpace=wrap;html=1;align=center;" vertex="1" parent="1">
          <mxGeometry x="865" y="440" width="100" height="40" as="geometry" />
        </mxCell>
        <mxCell id="GnBPj98Vv4eyhJv7mCs9-23" value="&lt;u&gt;codProfesor&lt;/u&gt;" style="ellipse;whiteSpace=wrap;html=1;align=center;" vertex="1" parent="1">
          <mxGeometry x="315" y="440" width="100" height="40" as="geometry" />
        </mxCell>
        <mxCell id="GnBPj98Vv4eyhJv7mCs9-24" value="apellidos" style="ellipse;whiteSpace=wrap;html=1;align=center;" vertex="1" parent="1">
          <mxGeometry x="645" y="440" width="100" height="40" as="geometry" />
        </mxCell>
        <mxCell id="GnBPj98Vv4eyhJv7mCs9-31" value="" style="endArrow=none;html=1;rounded=0;exitX=0.5;exitY=1;exitDx=0;exitDy=0;entryX=0.5;entryY=0;entryDx=0;entryDy=0;" edge="1" parent="1" target="GnBPj98Vv4eyhJv7mCs9-20">
          <mxGeometry width="50" height="50" relative="1" as="geometry">
            <mxPoint x="645" y="400" as="sourcePoint" />
            <mxPoint x="740" y="320" as="targetPoint" />
          </mxGeometry>
        </mxCell>
        <mxCell id="GnBPj98Vv4eyhJv7mCs9-32" value="" style="endArrow=none;html=1;rounded=0;exitX=0.5;exitY=1;exitDx=0;exitDy=0;entryX=0.5;entryY=0;entryDx=0;entryDy=0;" edge="1" parent="1" target="GnBPj98Vv4eyhJv7mCs9-24">
          <mxGeometry width="50" height="50" relative="1" as="geometry">
            <mxPoint x="645" y="400" as="sourcePoint" />
            <mxPoint x="740" y="320" as="targetPoint" />
          </mxGeometry>
        </mxCell>
        <mxCell id="GnBPj98Vv4eyhJv7mCs9-33" value="" style="endArrow=none;html=1;rounded=0;exitX=0.5;exitY=1;exitDx=0;exitDy=0;entryX=0;entryY=0;entryDx=0;entryDy=0;" edge="1" parent="1" target="GnBPj98Vv4eyhJv7mCs9-19">
          <mxGeometry width="50" height="50" relative="1" as="geometry">
            <mxPoint x="645" y="400" as="sourcePoint" />
            <mxPoint x="670" y="456" as="targetPoint" />
          </mxGeometry>
        </mxCell>
        <mxCell id="GnBPj98Vv4eyhJv7mCs9-34" value="" style="endArrow=none;html=1;rounded=0;exitX=0.5;exitY=1;exitDx=0;exitDy=0;entryX=0;entryY=0;entryDx=0;entryDy=0;" edge="1" parent="1" target="GnBPj98Vv4eyhJv7mCs9-21">
          <mxGeometry width="50" height="50" relative="1" as="geometry">
            <mxPoint x="645" y="400" as="sourcePoint" />
            <mxPoint x="680" y="466" as="targetPoint" />
          </mxGeometry>
        </mxCell>
        <mxCell id="GnBPj98Vv4eyhJv7mCs9-36" value="" style="endArrow=none;html=1;rounded=0;exitX=0.5;exitY=1;exitDx=0;exitDy=0;entryX=1;entryY=0;entryDx=0;entryDy=0;" edge="1" parent="1" target="GnBPj98Vv4eyhJv7mCs9-23">
          <mxGeometry width="50" height="50" relative="1" as="geometry">
            <mxPoint x="645" y="400" as="sourcePoint" />
            <mxPoint x="890" y="456" as="targetPoint" />
          </mxGeometry>
        </mxCell>
        <mxCell id="GnBPj98Vv4eyhJv7mCs9-37" value="" style="endArrow=none;html=1;rounded=0;exitX=0.5;exitY=1;exitDx=0;exitDy=0;entryX=1;entryY=0;entryDx=0;entryDy=0;" edge="1" parent="1" target="GnBPj98Vv4eyhJv7mCs9-18">
          <mxGeometry width="50" height="50" relative="1" as="geometry">
            <mxPoint x="645" y="400" as="sourcePoint" />
            <mxPoint x="410" y="456" as="targetPoint" />
          </mxGeometry>
        </mxCell>
        <mxCell id="GnBPj98Vv4eyhJv7mCs9-38" value="Atender" style="shape=rhombus;perimeter=rhombusPerimeter;whiteSpace=wrap;html=1;align=center;" vertex="1" parent="1">
          <mxGeometry x="500" y="150" width="120" height="60" as="geometry" />
        </mxCell>
        <mxCell id="GnBPj98Vv4eyhJv7mCs9-39" value="nota" style="ellipse;whiteSpace=wrap;html=1;align=center;" vertex="1" parent="1">
          <mxGeometry x="510" y="240" width="100" height="40" as="geometry" />
        </mxCell>
        <mxCell id="GnBPj98Vv4eyhJv7mCs9-40" value="" style="endArrow=none;html=1;rounded=0;exitX=0;exitY=0.5;exitDx=0;exitDy=0;entryX=1;entryY=0.5;entryDx=0;entryDy=0;" edge="1" parent="1" source="GnBPj98Vv4eyhJv7mCs9-38" target="-Cswm-ApFlKM6cjvyJiZ-1">
          <mxGeometry width="50" height="50" relative="1" as="geometry">
            <mxPoint x="660" y="210" as="sourcePoint" />
            <mxPoint x="710" y="160" as="targetPoint" />
          </mxGeometry>
        </mxCell>
        <mxCell id="GnBPj98Vv4eyhJv7mCs9-41" value="" style="endArrow=none;html=1;rounded=0;exitX=0.5;exitY=0;exitDx=0;exitDy=0;entryX=1;entryY=0.5;entryDx=0;entryDy=0;edgeStyle=orthogonalEdgeStyle;" edge="1" parent="1" source="-Cswm-ApFlKM6cjvyJiZ-34" target="GnBPj98Vv4eyhJv7mCs9-38">
          <mxGeometry width="50" height="50" relative="1" as="geometry">
            <mxPoint x="510" y="190" as="sourcePoint" />
            <mxPoint x="450" y="190" as="targetPoint" />
          </mxGeometry>
        </mxCell>
        <mxCell id="GnBPj98Vv4eyhJv7mCs9-42" value="" style="endArrow=none;html=1;rounded=0;exitX=0.5;exitY=0;exitDx=0;exitDy=0;entryX=0.5;entryY=1;entryDx=0;entryDy=0;edgeStyle=orthogonalEdgeStyle;" edge="1" parent="1" source="GnBPj98Vv4eyhJv7mCs9-39" target="GnBPj98Vv4eyhJv7mCs9-38">
          <mxGeometry width="50" height="50" relative="1" as="geometry">
            <mxPoint x="850" y="200" as="sourcePoint" />
            <mxPoint x="630" y="190" as="targetPoint" />
          </mxGeometry>
        </mxCell>
      </root>
    </mxGraphModel>
  </diagram>
</mxfile>
